# xmcd
#
# Track frame offsets: 
#        150
#        17230
#        33988
#        56870
#        70834
#        84452
#        101294
#        115540
#
# Disc length: 1772 seconds
#
# Revision: 0
# Processed by: cddbd v1.5.2PL0 Copyright (c) Steve Scherf et al.
# Submitted via: ExactAudioCopy v0.99pb5
#
DISCID=5d06ea08
DTITLE=The Blues Friends - Blues Kitchen
DYEAR=2004
DGENRE=Blues
TTITLE0=Hello
TTITLE1=Let The Good Times Roll
TTITLE2=The Thrill Is Gone
TTITLE3=Pride and Joy
TTITLE4=I'm Tore Down
TTITLE5=Walkin' Thru The Park
TTITLE6=Hirtin' Blues
TTITLE7=Alabama Train
EXTD=
EXTT0=
EXTT1=
EXTT2=
EXTT3=
EXTT4=
EXTT5=
EXTT6=
EXTT7=
PLAYORDER=
